<svg id="Layer_1" data-name="Layer 1" xmlns="http://www.w3.org/2000/svg" viewBox="0 0 123.83 108"><defs><style>.cls-1{fill:#F42534;}</style></defs><title>Buzzeasy_icons_v1</title><path class="cls-1" d="M47,107.88a3.46,3.46,0,0,1-3-1.74L29.05,80A38.4,38.4,0,0,1,.14,42.92V38.35A38.29,38.29,0,0,1,38.39.09H85.3a38.29,38.29,0,0,1,38.25,38.25v4.58A38.29,38.29,0,0,1,85.3,81.17h-21L50,106.14A3.46,3.46,0,0,1,47,107.88ZM38.39,7A31.36,31.36,0,0,0,7.06,38.35v4.58A31.43,31.43,0,0,0,32,73.6a3.46,3.46,0,0,1,2.3,1.67L47,97.45,59.3,76a3.46,3.46,0,0,1,3-1.74h23a31.36,31.36,0,0,0,31.33-31.33V38.35A31.36,31.36,0,0,0,85.3,7Z"/><circle class="cls-1" cx="36.98" cy="41.33" r="3.71"/><circle class="cls-1" cx="62.05" cy="41.33" r="3.71"/><circle class="cls-1" cx="85.77" cy="41.33" r="3.71"/></svg>