<?xml version="1.0" encoding="utf-8"?>
<!-- Generator: Adobe Illustrator 21.1.0, SVG Export Plug-In . SVG Version: 6.00 Build 0)  -->
<svg version="1.1" id="Layer_1" xmlns="http://www.w3.org/2000/svg" xmlns:xlink="http://www.w3.org/1999/xlink" x="0px" y="0px"
	 viewBox="0 0 150.7 58" style="enable-background:new 0 0 150.7 58;" xml:space="preserve">
<style type="text/css">
	.st0{fill:none;stroke:#FFD700;stroke-width:4.72;stroke-linecap:round;stroke-miterlimit:10;}
</style>
<title>Icons and flourishes</title>
<path class="st0" d="M2.1,55.1c17-35.9,32.5-44.8,32.5-44.8c4.2-2.8,11.2-7.8,20.7-7.8l0,0c14.8,0,24.2,11,24.2,11l0,0
	c4.4,4.5,4.4,11.8,0,16.3C75,34.3,67.6,34.4,63,29.9c-4.6-4.5-4.6-11.9-0.1-16.4c0.9-0.9,1.8-1.8,2.8-2.7C68,9,70.4,7.4,72.9,5.9
	c4.3-2.2,9.1-3.4,14-3.5c9.5,0,16.8,4.6,20.8,7.8c0,0,22.2,19.8,40.4,45"/>
</svg>
