<svg id="Layer_1" data-name="Layer 1" xmlns="http://www.w3.org/2000/svg" viewBox="0 0 150.72 58.05"><defs><style>.cls-1{fill:none;stroke:gold;stroke-linecap:round;stroke-miterlimit:10;stroke-width:4.72px;}</style></defs><title>Icons and flourishes</title><path class="cls-1" d="M148.36,54.69C129.92,29.58,107.58,10,107.58,10c-4-3.2-11.31-7.7-20.85-7.61a31.16,31.16,0,0,0-14,3.57,59.42,59.42,0,0,0-7.22,4.89,27.41,27.41,0,0,0-2.74,2.68,11.63,11.63,0,1,0,16.61-.11h0S69.88,2.52,55.12,2.66h0c-9.48.09-16.45,5.12-20.64,8,0,0-15.45,9.08-32.12,45.08"/></svg>