<?xml version="1.0" encoding="utf-8"?>
<!-- Generator: Adobe Illustrator 21.1.0, SVG Export Plug-In . SVG Version: 6.00 Build 0)  -->
<svg version="1.1" id="Layer_1" xmlns="http://www.w3.org/2000/svg" xmlns:xlink="http://www.w3.org/1999/xlink" x="0px" y="0px"
	 viewBox="0 0 152.8 152.8" style="enable-background:new 0 0 152.8 152.8;" xml:space="preserve">
<style type="text/css">
	.st0{fill:#2F7DE1;}
</style>
<path class="st0" d="M88.9,76.6c0.7,3.8,0.3,8.2-0.1,12c-0.5,4-1.3,8.1-2.5,11.9c0,0-1.3,4.7-2.4,7.1c-0.6,1.3-1.2,2.6-1.7,3.8
	c-0.5,1.2-1.4,1-1.9,1c-14.4-2.7-20.8-17.1-15.9-30.4c2.3-6.2,7.3-11.5,14-12.8c2.4-0.5,5-0.2,6.9,1.2
	C87.3,71.8,88.5,74.2,88.9,76.6z M152.8,76.4c0,42.2-34.2,76.4-76.4,76.4c-42.2,0-76.4-34.2-76.4-76.4C0.1,34.2,34.3,0,76.5,0
	C118.6,0.1,152.8,34.3,152.8,76.4z M114.9,101.8c-1-0.7-1.9-0.2-3.2,1.4c-4.1,4.8-9.1,7.6-14.1,9.1c-0.8,0.2-0.7-0.3-0.5-0.6
	c0.4-0.6,0.7-1.3,1.1-2.3c0.6-1.4,1.6-3.7,2.3-5.7c0.8-2,1.5-4,1.5-4c1.6-5.5,2.3-11,1.9-16.6c-0.3-5.2-1.3-10.2-4.7-14.7
	c-3.3-4.5-8.6-6.8-14.2-6h0c-4.5,0.2-8.7,2.6-12.3,5.3c-0.3,0.2-0.6,0-0.4-0.3c1.7-3.2,3.5-6.4,5.1-9.7c3.4-6.1,6.1-12.5,7.3-19.5
	c0.7-4.2,0.9-8.5-0.7-12.6c-1.3-3.2-4.3-5.1-7.6-5c-0.5,0-1.1,0.1-1.6,0.2c-2.1,0.5-3.8,1.6-5.3,2.9c-4.4,3.9-7.3,8.6-9.6,13.5
	c-0.8,1.8-1.6,3.6-2.3,5.4c-3.3,8-5.4,16.3-7,24.7c-0.2,0.9-0.3,1.9-0.5,2.8c0,0,0,0,0,0.1c-1.5,8.2-2.6,16.4-2.5,24.7
	c0.1,9,1.1,17.9,5.8,26.2c1.8,3.3,4.2,6.2,7.5,8.2c1.1,0.6,2.2,1.1,3.5,1.5c6.3,2,12.2,0.5,17.5-2.6c4.8-2.7,8.4-6.3,11.4-10.3
	c0.2-0.3,0.7-0.8,1.6-0.9c9.9-1.3,16-6.4,19.3-10.3C115.6,104.7,116.1,102.7,114.9,101.8z M78.1,116.2c-0.7-0.2-1.4-0.3-2.1-0.5
	c-5-1.1-10.5-5-14.1-8.8c-0.4-0.4-0.9-0.5-0.9,0.8c0.1,1.6,0.3,3.2,0.6,4.8c0.4,1.9,0.9,3.9,1.8,5.7c0.5,1,1.1,2,1.9,2.9
	c2.4,2.6,5.6,2.9,8.7,0.9c1.9-1.3,3.4-2.9,4.7-4.5C79,116.8,78.7,116.3,78.1,116.2z M65.1,67c1.6-2.5,3.1-5,4.5-7.5
	c2.3-4.3,4.3-8.8,5.8-13.4c0.4-1.2,0.7-2.3,1.1-3.5c0,0,0-0.1,0-0.1c1-3.4,1.7-7,1.9-10.5c0-0.1,0-0.3,0-0.4c0-1.2,0-2.4-0.3-3.6
	c-0.2-0.6-0.5-1.2-1.4-1.4c-0.8-0.1-1.2,0.4-1.6,0.9c-0.3,0.5-0.7,0.9-0.9,1.4c-0.1,0.1-0.1,0.3-0.2,0.4c-1.2,2.2-2,4.6-2.7,6.9
	C68.7,44.6,67,53,65.5,61.4c-0.3,1.8-0.6,3.6-0.9,5.3C64.4,67.2,64.8,67.4,65.1,67z"/>
</svg>
