<?xml version="1.0" encoding="utf-8"?>
<!-- Generator: Adobe Illustrator 21.1.0, SVG Export Plug-In . SVG Version: 6.00 Build 0)  -->
<svg version="1.1" id="Layer_1" xmlns="http://www.w3.org/2000/svg" xmlns:xlink="http://www.w3.org/1999/xlink" x="0px" y="0px"
	 viewBox="0 0 433 128.3" style="enable-background:new 0 0 433 128.3;" xml:space="preserve">
<style type="text/css">
	.st0{fill:#FFFFFF;}
</style>
<path class="st0" d="M432.4,63.2c-0.7-0.9-1.5-0.7-2.5-0.4c-6.8,2.2-13.1,5.3-19.3,8.6c-2,1-3.9,2.1-5.9,3.2
	c-0.4,0.2-0.9,0.5-1.2,0.3c-0.3-0.2-0.2-0.9-0.2-1.2c0-0.9,0.2-1.8,0.2-2.7c0.2-4.4,0.4-8.8-0.1-13.2c-0.5-4.1-4.4-6.7-8.4-5.7
	c-0.5,0.1-1,0.3-1.6,0.5c-1.1,0.4-1.5,1-1.4,2.3c0.2,3.7-0.2,7.5-1,11.1c-0.8,3.5-1.5,7.2-4.5,9.7c-2.1,1.8-4.8,1.2-5.9-1.3
	c-0.7-1.6-0.9-3.3-1-5.1c-0.2-3.9,0.3-7.7,0.8-11.5c0.3-2.8-1-4.9-3.7-5.4c-1.9-0.3-3.8-0.3-5.6,0.2c-1,0.3-1.3,0.6-1.2,1.6
	c0.3,3.8,0,7.6,0,11.4c0,0.5,0.1,1.1-0.2,1.2c-0.2,0.1-0.5,0.2-0.9,0.3c-5.7,1.5-11.1,3.9-16.4,6.4c-0.6,0.3-1.1,0.5-1.7,0
	c-2.5-2-5.1-3.8-6.9-6.3c-0.9-1.2-1.5-2.5-1.7-4c-0.2-1.6,0.4-2.3,2-2.3c0.9,0,1.8,0.1,2.6-0.1c2.1-0.3,4.2-0.8,5.5-2.8
	c1.1-1.7,0.8-2.5-1.1-3.1c-3.5-1.1-7.1-0.8-10.6,0.1c-5.3,1.3-9.5,5.3-9.4,11l0,0c0,0.1,0,0.2,0,0.4c0,0,0,0.1,0,0.1
	c0.1,2.1,0,2.5-1.1,4.3c-1.7,2.2-3.4,4.4-5.2,6.5c-2.5,2.7-4.9,5.5-8.4,7c-2.4,1.1-4.6,0.2-5.6-2.2c-0.8-1.9-1-3.9-0.9-5.9
	c0.2-3.4,0.6-6.8,1.4-10.1c0.4-1.5,0.2-2.9-0.7-4.2c-3.5-4.8-8.2-7.5-14.1-7.3c-10.3,0.4-16.7,6.2-21.9,15.1
	c-1.3,2.3-2.6,5.1-4.3,7.2c-4.2,5.1-8.1,9.8-14.1,12.9c-7.3,3.6-14.9,1.9-18.6-4.5c-0.4-0.7-0.3-1.6,0.3-2c1.8-1.3,3.7-2.6,5.3-4.1
	c5.1-4.8,8.6-10.4,7.9-17.4c-0.5-5.2-2.6-9-8.3-10.2c-4.1-0.8-7.9,0.4-11.4,2.7c-12.5,8.2-9.4,23.3-9,25.2c0.5,2.4,1.3,4.5,2.4,6.5
	c0.1,0.2,0.3,1-0.4,1.3c-5.7,2.8-13.7,5.3-22.2,6.9c-5.4,1-9.6,1.1-11.6,0.5c-3.1-0.9-2.4-3.1-1-5c5.2-7.1,10.9-13.8,16.3-20.6
	c2-2.5,4.1-4.8,5.8-7.5c3.1-5.1,0.8-10.7-5-12.2c-5.9-1.5-12-1.5-18.1-1.1c-8,0.4-11,3.7-12.1,5.4c-0.4,0.6-0.6,1.3-0.5,2
	c0.2,1.6,1.6,1.6,4.4,1.9c5.3,0.4,13.9-0.9,17-0.7c3.4,0.2-0.3,4.5-0.5,4.7c-4.4,5.9-9,10.6-15.5,16.5l0,0
	c-12.4,10.5-26.1,14.8-37.3,15.4c-1.5,0.1-2.5-0.2-3-1c-0.3-0.4-0.2-0.9,0.1-1.6c0.8-1.6,6.2-7.7,9.4-11.3c1.1-1.2,1.9-2.2,2.4-2.8
	l0.4-0.4c3.1-3.7,7.6-8.9,10.3-13c0.9-1.4,1.3-2.8,0.9-4.1c-0.5-1.9-2.4-2.9-2.4-2.9c-4.3-2.4-20.1-1.1-20.3-1.1
	c-0.1,0-11.8,0.4-11.9,4.7c0,0.6,0.3,1,0.7,1.5c1.7,2.3,7.4,1.6,8.2,1.6c1.3-0.1,6.5-0.1,9.4-0.1c0.7,0,1,0.8,0.6,1.3
	c-3.9,4.9-19,22.3-19.8,23.3c-8.2,7.6-17.2,8.6-19.9,4.5c-1.8-2.7-1.2-7.5-0.8-10.1l0.1-0.5c0.4-2.7,3.1-14.6,4.3-19.6
	c0.2-1-0.3-2-1.3-2.4c-3.1-1-6.9-1.9-7.6-0.4c-0.6,1.3-0.9,2.6-1.3,3.9c-0.2,0.8-0.5,1.7-0.8,2.5c-1.9,5.6-4.1,10.9-7.3,14.5
	c-3.9,4.5-7.4,7.9-10.7,9.2c-1.1,0.4-2.6,0.3-3.6-0.1c-3.1-1.2-2.5-8.1-1.9-11.8c0.1-0.6,0.2-1.2,0.2-1.6c0.4-4,1.7-11.6,1.9-12.6
	c0.9-4.2,2.1-8.2,1.2-8.9c-1-0.7-2.7-1.3-4.4-1.5c-1.8-0.3-3.7-0.3-4.9,0.2c-0.7,0.3-1.1,0.8-1.3,1.4l0,0c0,0.1-1.9,7.5-3.2,15.9
	c-0.2,1.2-0.3,2.4-0.5,3.5l0,0c-0.2,1.8-0.2,1.8-1,3.3l0,0C61.7,84.2,55.4,88,49.3,89.7c-0.8,0.2-0.6-0.3-0.5-0.6
	c0.4-0.6,0.7-1.3,1.1-2.2c0.6-1.4,1.5-3.6,2.3-5.6s1.4-4,1.4-4c1.5-5.3,2.2-10.8,1.9-16.2c-0.3-5.1-1.3-10-4.6-14.4
	c-3.3-4.4-8.4-6.6-13.9-5.9h0c-4.4,0.2-8.5,2.5-12,5.2c-0.3,0.2-0.6,0-0.4-0.3c1.7-3.1,3.4-6.3,5-9.5c3.3-6,6-12.2,7.1-19.1
	C37.4,13,37.6,8.9,36,4.8c-1.3-3.1-4.2-5-7.4-4.9C28,0,27.5,0.1,27,0.2c-2.1,0.5-3.7,1.6-5.2,2.9c-4.3,3.8-7.1,8.4-9.4,13.2
	c-0.8,1.7-1.6,3.5-2.3,5.3c-3.2,7.8-5.3,15.9-6.9,24.1c-0.2,0.9-0.3,1.8-0.5,2.7c0,0,0,0,0,0.1c-1.4,8-2.5,16.1-2.5,24.2
	c0.1,8.8,1.1,17.5,5.7,25.6c1.8,3.2,4.1,6.1,7.4,8c1,0.6,2.2,1.1,3.4,1.5c6.2,1.9,11.9,0.5,17.1-2.5c4.7-2.7,8.3-6.1,11.2-10
	c0.2-0.3,0.7-0.8,1.6-0.9c9.7-1.3,15.6-6.4,18.7-10.2c0.6-0.7,0.8-0.2,0.8,0.3c0,3.7,0.5,6.4,1.5,8.2c2.6,4.9,5.9,7.2,10.3,7.1
	c5.4-0.2,11.1-4.4,14.8-9.4l0,0c1.9-2.3,4-6.1,4.8-7.2c0.7-1.1,1.1-0.6,0.9,0.2c-0.9,4.2-1.8,10.9,1.2,14.1c2.4,2.6,5.3,3.7,8.6,4.2
	c0,0,6.4,1.6,16-6.8c1-0.9,1.1-0.2,1.1,0.3c0,1,0.3,2,0.9,2.9c1,1.7,3,2.7,5.8,3.1c0.8,0.1,1.7,0.1,2.6,0.1c8.6,0,21.2-5,25.1-6.4
	c2.3-0.8,5.5-2.2,8.7-3.5c0.8-0.3,1.3-0.3,0.9,0.8c-1.2,3.4,0.8,6.4,2.9,7.5c0,0,0,0,0.1,0c2.7,1.4,5.6,1.9,8.5,2.2
	c5.1,0.4,10.2-0.1,15.3-0.9c0,0,10.4-2.2,15.9-4.5c0,0,0,0,0,0c0.4-0.1,7.8-2.6,14.7-6.1c0.6-0.3,1,0,1.2,0.2
	c4.3,4.6,10.4,7.2,16.7,7.6c7.2,0.5,13.2-2.3,18.7-6.5c2.7-2.1,5.1-4.5,7.4-7.1c0.6-0.7,1.1-0.8,1.2,0c0.1,0.9,0.4,2.2,0.7,3.1
	c1.8,6.4,9.4,10.2,15.7,8c6.1-2.2,10.4-6.4,13.7-11.8c0.3-0.6,0.9-1.5,1.2,0.2c0.7,4.2,3.7,6.8,7.6,6.5c1.6-0.1,3.2-0.5,4.7-1.3
	c4.6-2.2,8.2-5.8,11.5-9.6c1.7-2,3.2-4.1,4.8-6.3c0.6-0.8,1.2-0.5,1.6,0c1.7,2.3,3.8,4.2,5.9,5.9c1.1,0.9,1.1,1.3-0.1,2.2
	c-3.2,2.3-6.3,4.8-8.4,8.2c-2.5,4-1.5,7.8,2.4,9.7c1,0.5,2.1,0.8,3.3,0.9c5.4,0.6,10.3-0.6,14.9-3.3c7-4.2,8.6-12.6,3.6-19
	c-0.8-1-0.6-1.3,0.4-1.8c3.9-1.9,7.9-3.5,12-4.9c0.7-0.3,2.1-0.7,2.4-0.7c0.3,0.1,0.3,0.3,0.8,2.5c0.3,1.7,0.9,3.3,1.6,4.9
	c2.1,4.7,6.5,6.4,11.2,4.2c2.4-1.1,4.2-2.6,5.9-4.5c0.8-0.9,1.6-2,2.2-3c0.3-0.4,0.9-1.5,1.3-1.4c0.4,0.1,0.4,1.2,0.4,1.7
	c0.1,2.1-0.1,4.3-0.2,6.4c0,0.9-0.4,1.6-1.1,2.2c-6.3,4.9-12.1,10.2-16.5,16.9c-3.7,5.7-6.1,11.8-5.4,18.6c0.4,3.8,1.6,7.2,5.6,8.6
	c3.5,1.2,6.6,0,9.5-2c4.9-3.5,7.8-8.6,10.2-14c4.2-9.3,6.2-19.2,7.5-29.3c0.1-0.8,0.3-1.4,1-1.9c8.9-5.9,18.1-11.2,28.1-14.8
	C433.1,65.2,433.3,64.4,432.4,63.2z M17.9,40c1.5-8.3,3.2-16.5,5.6-24.6c0.7-2.3,1.4-4.6,2.6-6.8c0.1-0.1,0.1-0.2,0.2-0.4
	c0.3-0.5,0.6-0.9,0.9-1.4c0.4-0.5,0.8-1,1.6-0.9c0.8,0.1,1.2,0.7,1.3,1.3c0.3,1.1,0.4,2.3,0.3,3.5c0,0.1,0,0.3,0,0.4
	c-0.2,3.5-0.9,6.9-1.8,10.3c0,0,0,0.1,0,0.1c-0.3,1.1-0.7,2.3-1,3.4c-1.5,4.5-3.4,8.9-5.7,13.1c-1.3,2.5-2.8,4.9-4.4,7.3
	c-0.2,0.4-0.6,0.2-0.5-0.2C17.2,43.5,17.5,41.7,17.9,40z M30.7,94.8c-1.3,1.7-2.7,3.2-4.6,4.4c-3,2-6.1,1.7-8.5-0.9
	c-0.8-0.9-1.4-1.8-1.8-2.8c-0.8-1.8-1.4-3.7-1.8-5.6c-0.3-1.6-0.5-3.1-0.6-4.7c-0.1-1.3,0.5-1.2,0.9-0.8c3.5,3.7,9,7.5,13.8,8.6
	c0.7,0.2,1.4,0.3,2.1,0.5C30.8,93.7,31.1,94.2,30.7,94.8z M40.7,66.6c-0.4,4-1.2,7.9-2.5,11.7c0,0-1.3,4.6-2.4,7
	c-0.6,1.3-1.2,2.6-1.7,3.7c-0.5,1.2-1.4,1-1.8,0.9c-14.1-2.6-20.4-16.7-15.6-29.7c2.3-6.1,7.1-11.3,13.7-12.5
	c2.3-0.4,4.8-0.2,6.8,1.1c2,1.4,3.1,3.7,3.6,6.1C41.5,58.6,41.1,62.8,40.7,66.6z M234.7,78.1c-0.9-4.4-1.3-8.6-0.4-12.8
	c0.5-2.4,1.3-4.7,3-6.5c1.2-1.3,2.6-2.1,4.3-1.6c1.7,0.5,2.5,1.9,2.9,3.6c0.7,2.9,0,5.7-1.1,8.4c-1.6,3.7-4.1,6.6-7.1,9.5
	C235,79.9,234.8,78.6,234.7,78.1z M301.7,63.8c-1.6,6.9-4.3,13.3-8.4,19.2c-1.3,1.8-2.7,3.5-4.8,4.4c-1.8,0.8-3.8-0.1-4.6-1.9
	c-1.2-3.5,0.4-10.2,0.7-11.2c1.1-3.8,2.9-7.3,5.4-10.5c3.2-3.8,5.2-4.8,5.9-5.1c0,0,0.1,0,0.1,0c0.9-0.2,1.8-0.2,2.8,0.1
	C301.1,59.4,302.2,61.5,301.7,63.8z M338.9,95.8c-1.1,0.4-2.3,0.6-3.2-0.2c-1-0.9-1.1-2.3-0.7-3.5c1.4-3.6,4.7-6.3,7.3-8.1
	c0.6-0.4,0.9-0.1,1.2,0.4c0.7,1.2,1.2,2.4,1.1,3.7C344.4,91.3,341.9,94.8,338.9,95.8z M391.3,92.3c-0.4,2.6-1.3,5.5-1.8,7.9
	c-1.4,5.6-2.9,11.1-5.2,16.3c-0.4,1-0.9,2-1.5,3c-4.8,8.6-8.3,7.7-7.8-2.2c0.1-1.7,0.5-3.4,0.9-5c2.3-8.2,7.5-14.5,13.4-20.3
	c0,0,0,0,0,0c0.3-0.3,1.6-1.6,1.9-1.5C391.6,90.6,391.5,91.2,391.3,92.3z"/>
</svg>
