<svg id="Layer_1" data-name="Layer 1" xmlns="http://www.w3.org/2000/svg" viewBox="0 0 150 110"><defs><style>.cls-1{fill:#F42534;}</style></defs><title>Buzzeasy_icons_v1</title><path class="cls-1" d="M32.61,110a3.46,3.46,0,0,1-3-1.74L20,91.46A26.49,26.49,0,0,1,.55,66V63A26.42,26.42,0,0,1,26.93,36.59h2.72a3.46,3.46,0,0,1,0,6.92H26.93A19.49,19.49,0,0,0,7.47,63v3A19.53,19.53,0,0,0,23,85.06a3.46,3.46,0,0,1,2.3,1.67l7.35,12.83L39.68,87.2a3.46,3.46,0,0,1,3-1.74H57.84A19.34,19.34,0,0,0,74.5,76.08a3.46,3.46,0,1,1,5.92,3.59A26.22,26.22,0,0,1,57.84,92.38H44.69l-9.08,15.86A3.46,3.46,0,0,1,32.61,110Z"/><path class="cls-1" d="M102.74,108a3.46,3.46,0,0,1-3-1.74l-14.29-25h-21A38.29,38.29,0,0,1,26.2,43.09V38.51A38.29,38.29,0,0,1,64.45.26h46.9A38.29,38.29,0,0,1,149.6,38.51v4.58a38.4,38.4,0,0,1-28.91,37.1l-15,26.11A3.46,3.46,0,0,1,102.74,108ZM64.45,7.18A31.36,31.36,0,0,0,33.12,38.51v4.58A31.36,31.36,0,0,0,64.45,74.42h23a3.46,3.46,0,0,1,3,1.74l12.29,21.46,12.7-22.18a3.46,3.46,0,0,1,2.3-1.67,31.43,31.43,0,0,0,24.94-30.68V38.51A31.36,31.36,0,0,0,111.35,7.18Z"/><path class="cls-1" d="M87.43,51.51a2,2,0,0,1-2-2v-10a2,2,0,0,1,2-2A8.54,8.54,0,1,0,79.65,25.4a2,2,0,0,1-3.72-1.69A12.62,12.62,0,1,1,89.47,41.38v8.08A2,2,0,0,1,87.43,51.51Z"/><circle class="cls-1" cx="87.43" cy="60.67" r="3.05"/></svg>