<svg id="Layer_1" data-name="Layer 1" xmlns="http://www.w3.org/2000/svg" viewBox="0 0 114 117.25"><defs><style>.cls-1,.cls-2{fill:none;stroke:#72d54a;stroke-linecap:round}.cls-1{stroke-miterlimit:10;stroke-width:4.11px}.cls-2{stroke-linejoin:round;stroke-width:6.96px}</style></defs><title>Icons and flourishes</title><path class="cls-1" d="M69.72 4.8a37.21 37.21 0 0 1 32.45 61.95M68.85 21.32A21.16 21.16 0 0 1 88.08 58"/><path class="cls-2" d="M54.39 113.87l31.56-17.2a3.84 3.84 0 0 0 1.53-5.21L77.22 72.7A3.84 3.84 0 0 0 72 71.17l-15.91 8.54a3.84 3.84 0 0 1-5.21-1.53l-18.64-34.1a3.84 3.84 0 0 1 1.53-5.21l15.93-8.54a3.84 3.84 0 0 0 1.53-5.21L40.6 5.68a3.84 3.84 0 0 0-5.21-1.53L3.83 21.36s-5.3 58.86 50.56 92.51z"/></svg>