<svg id="Layer_1" xmlns="http://www.w3.org/2000/svg" viewBox="0 0 150.7 58"><style>.st0{fill:none;stroke:gold;stroke-width:4.72;stroke-linecap:round;stroke-miterlimit:10}</style><title>Icons and flourishes</title><path class="st0" d="M2.1 55.1c17-35.9 32.5-44.8 32.5-44.8 4.2-2.8 11.2-7.8 20.7-7.8 14.8 0 24.2 11 24.2 11 4.4 4.5 4.4 11.8 0 16.3-4.5 4.5-11.9 4.6-16.5.1s-4.6-11.9-.1-16.4c.9-.9 1.8-1.8 2.8-2.7C68 9 70.4 7.4 72.9 5.9c4.3-2.2 9.1-3.4 14-3.5 9.5 0 16.8 4.6 20.8 7.8 0 0 22.2 19.8 40.4 45"/></svg>