<svg id="Layer_1" xmlns="http://www.w3.org/2000/svg" viewBox="0 0 152.8 152.8"><style>.st0{fill:#fff}</style><path class="st0" d="M88.9 76.6c.7 3.8.3 8.2-.1 12-.5 4-1.3 8.1-2.5 11.9 0 0-1.3 4.7-2.4 7.1-.6 1.3-1.2 2.6-1.7 3.8-.5 1.2-1.4 1-1.9 1-14.4-2.7-20.8-17.1-15.9-30.4 2.3-6.2 7.3-11.5 14-12.8 2.4-.5 5-.2 6.9 1.2 2 1.4 3.2 3.8 3.6 6.2zm63.9-.2c0 42.2-34.2 76.4-76.4 76.4S0 118.6 0 76.4C.1 34.2 34.3 0 76.5 0c42.1.1 76.3 34.3 76.3 76.4zm-37.9 25.4c-1-.7-1.9-.2-3.2 1.4-4.1 4.8-9.1 7.6-14.1 9.1-.8.2-.7-.3-.5-.6.4-.6.7-1.3 1.1-2.3.6-1.4 1.6-3.7 2.3-5.7.8-2 1.5-4 1.5-4 1.6-5.5 2.3-11 1.9-16.6-.3-5.2-1.3-10.2-4.7-14.7-3.3-4.5-8.6-6.8-14.2-6-4.5.2-8.7 2.6-12.3 5.3-.3.2-.6 0-.4-.3 1.7-3.2 3.5-6.4 5.1-9.7 3.4-6.1 6.1-12.5 7.3-19.5.7-4.2.9-8.5-.7-12.6-1.3-3.2-4.3-5.1-7.6-5-.5 0-1.1.1-1.6.2-2.1.5-3.8 1.6-5.3 2.9-4.4 3.9-7.3 8.6-9.6 13.5-.8 1.8-1.6 3.6-2.3 5.4-3.3 8-5.4 16.3-7 24.7-.2.9-.3 1.9-.5 2.8v.1c-1.5 8.2-2.6 16.4-2.5 24.7.1 9 1.1 17.9 5.8 26.2 1.8 3.3 4.2 6.2 7.5 8.2 1.1.6 2.2 1.1 3.5 1.5 6.3 2 12.2.5 17.5-2.6 4.8-2.7 8.4-6.3 11.4-10.3.2-.3.7-.8 1.6-.9 9.9-1.3 16-6.4 19.3-10.3 1.4-2 1.9-4 .7-4.9zm-36.8 14.4c-.7-.2-1.4-.3-2.1-.5-5-1.1-10.5-5-14.1-8.8-.4-.4-.9-.5-.9.8.1 1.6.3 3.2.6 4.8.4 1.9.9 3.9 1.8 5.7.5 1 1.1 2 1.9 2.9 2.4 2.6 5.6 2.9 8.7.9 1.9-1.3 3.4-2.9 4.7-4.5.3-.7 0-1.2-.6-1.3zM65.1 67c1.6-2.5 3.1-5 4.5-7.5 2.3-4.3 4.3-8.8 5.8-13.4.4-1.2.7-2.3 1.1-3.5v-.1c1-3.4 1.7-7 1.9-10.5v-.4c0-1.2 0-2.4-.3-3.6-.2-.6-.5-1.2-1.4-1.4-.8-.1-1.2.4-1.6.9-.3.5-.7.9-.9 1.4-.1.1-.1.3-.2.4-1.2 2.2-2 4.6-2.7 6.9-2.6 8.4-4.3 16.8-5.8 25.2-.3 1.8-.6 3.6-.9 5.3-.2.5.2.7.5.3z"/></svg>