<svg viewBox="0 0 152.9 152.9" xmlns="http://www.w3.org/2000/svg"><g fill="#2f7de1"><path d="M60.8 78.6c5.6-8.3 10.1-17.3 13.5-26.7 1.6-4.5 2.6-9.2 3-14 .2-2.9-.9-5.4-2.8-6.1s-3.8.3-5.7 2.9c-1.6 2.3-2.8 4.8-3.6 7.4-2.6 7.7-4.3 15.6-5.1 23.7-.7 4.6-1 9.3-.7 14 .8-.1 1.1-.7 1.4-1.2zM82.6 80.6c-.3.6-.4 1.3-.5 2-.7 6 4.3 11.1 9.2 12.9.8.3 1.2.1 1.5-.8.6-2.4.9-4.8.9-7.3.1-3.9-.3-6-1.4-8.1-2.3-4.1-7.6-3.9-9.7 1.3z"/><path d="M76.5.2C34.3.1.1 34.3.1 76.5s34.2 76.4 76.4 76.4 76.4-34.2 76.4-76.4S118.7.2 76.5.2zm46.7 92.7c-2.1 1.5-4 2.9-6 4.2-4.8 3.1-10.2 5.2-15.8 6.1-.8 0-1.5.6-1.7 1.4-2.5 7.1-6.5 13.5-11.7 18.9-12.2 12.1-33.1 8-40.2-8.2-2.9-6.9-4.5-14.3-4.7-21.8-.7-15.8.5-31.5 5.5-46.7 2.7-8.1 6.5-15.4 13-21.2 3.2-3 7.2-4.9 11.4-5.7 7-1.2 11.7 3.1 12 10.8s-2 15-4.7 22c-4.6 12-11 23.3-18.9 33.4a5.66 5.66 0 0 0-1.4 4.8c1.1 7.5 2.3 14.9 6 21.7.4.7.9 1.5 1.4 2.1 3.9 5.3 8.6 5.9 13.6 1.8 3.9-3.3 6.4-7.7 8.5-12.2.6-1.2 0-1.6-1.2-1.9-5.9-1.5-10.7-5.9-12.7-11.7-3.3-9.1 2.5-17.6 12.1-18.2 8.7-.6 13.9 5.1 14.8 13.7.2 2.8.1 5.6-.5 8.3-.3 1.6.2 2 1.8 1.6 7.2-1.6 13.8-5.1 19.1-10.2.1-.1.2-.1.3 0l.1.1z"/></g></svg>