<svg id="Layer_1" data-name="Layer 1" xmlns="http://www.w3.org/2000/svg" viewBox="0 0 150 110"><defs><style>.cls-1{fill:#0c0b0b}</style></defs><title>Buzzeasy_icons_v1</title><path class="cls-1" d="M32.61 110a3.46 3.46 0 0 1-3-1.74L20 91.46A26.49 26.49 0 0 1 .55 66v-3a26.42 26.42 0 0 1 26.38-26.41h2.72a3.46 3.46 0 0 1 0 6.92h-2.72A19.49 19.49 0 0 0 7.47 63v3A19.53 19.53 0 0 0 23 85.06a3.46 3.46 0 0 1 2.3 1.67l7.35 12.83 7.03-12.36a3.46 3.46 0 0 1 3-1.74h15.16a19.34 19.34 0 0 0 16.66-9.38 3.46 3.46 0 1 1 5.92 3.59 26.22 26.22 0 0 1-22.58 12.71H44.69l-9.08 15.86a3.46 3.46 0 0 1-3 1.76z"/><path class="cls-1" d="M102.74 108a3.46 3.46 0 0 1-3-1.74l-14.29-25h-21A38.29 38.29 0 0 1 26.2 43.09v-4.58A38.29 38.29 0 0 1 64.45.26h46.9a38.29 38.29 0 0 1 38.25 38.25v4.58a38.4 38.4 0 0 1-28.91 37.1l-15 26.11a3.46 3.46 0 0 1-2.95 1.7zM64.45 7.18a31.36 31.36 0 0 0-31.33 31.33v4.58a31.36 31.36 0 0 0 31.33 31.33h23a3.46 3.46 0 0 1 3 1.74l12.29 21.46 12.7-22.18a3.46 3.46 0 0 1 2.3-1.67 31.43 31.43 0 0 0 24.94-30.68v-4.58a31.36 31.36 0 0 0-31.33-31.33z"/><path class="cls-1" d="M87.43 51.51a2 2 0 0 1-2-2v-10a2 2 0 0 1 2-2 8.54 8.54 0 1 0-7.78-12.11 2 2 0 0 1-3.72-1.69 12.62 12.62 0 1 1 13.54 17.67v8.08a2 2 0 0 1-2.04 2.05z"/><circle class="cls-1" cx="87.43" cy="60.67" r="3.05"/></svg>