<svg id="Layer_1" data-name="Layer 1" xmlns="http://www.w3.org/2000/svg" viewBox="0 0 107.67 107.5"><defs><style>.cls-1{fill:#0c0b0b}</style></defs><title>Buzzeasy_icons_v1</title><path class="cls-1" d="M53.74 107.29a53.64 53.64 0 1 1 53.64-53.64 53.7 53.7 0 0 1-53.64 53.64zm0-100.86A47.22 47.22 0 1 0 101 53.65 47.28 47.28 0 0 0 53.74 6.43z"/><path class="cls-1" d="M53.74 14.13a2 2 0 0 1-2-2V6.4a2 2 0 1 1 4.08 0v5.69a2 2 0 0 1-2.08 2.04zM53.74 102.83a2 2 0 0 1-2-2V95.1a2 2 0 0 1 4.08 0v5.69a2 2 0 0 1-2.08 2.04zM12.33 55.69h-5.7a2 2 0 0 1 0-4.08h5.69a2 2 0 1 1 0 4.08zM100.94 55.69h-5.69a2 2 0 1 1 0-4.08h5.69a2 2 0 1 1 0 4.08zM53.74 55.69a2 2 0 0 1-2-2v-30a2 2 0 0 1 4.08 0v30a2 2 0 0 1-2.08 2z"/><path class="cls-1" d="M67.45 69.4a2 2 0 0 1-1.45-.6L52.3 55.1a2 2 0 0 1 2.89-2.89l13.7 13.71a2 2 0 0 1-1.44 3.48z"/></svg>