<?xml version="1.0" standalone="no"?>
<!DOCTYPE svg PUBLIC "-//W3C//DTD SVG 20010904//EN"
 "http://www.w3.org/TR/2001/REC-SVG-20010904/DTD/svg10.dtd">
<svg version="1.0" xmlns="http://www.w3.org/2000/svg"
 width="800.000000pt" height="800.000000pt" viewBox="0 0 800.000000 800.000000"
 preserveAspectRatio="xMidYMid meet">
<metadata>
Created by potrace 1.11, written by Peter Selinger 2001-2013
</metadata>
<g transform="translate(0.000000,800.000000) scale(0.100000,-0.100000)"
fill="#000000" stroke="none">
<path d="M3700 7990 c-997 -83 -1881 -497 -2570 -1206 -933 -960 -1319 -2308
-1039 -3628 155 -736 535 -1431 1079 -1976 776 -778 1830 -1197 2930 -1167
616 17 1152 152 1695 426 667 337 1194 820 1600 1466 92 146 249 458 314 622
134 342 223 706 263 1083 19 176 16 653 -6 835 -91 782 -384 1478 -880 2090
-116 143 -431 458 -569 567 -628 499 -1294 779 -2082 874 -153 18 -584 26
-735 14z m463 -1100 c76 -29 173 -119 210 -193 145 -296 92 -787 -143 -1342
-45 -107 -203 -419 -357 -703 -51 -95 -93 -177 -93 -183 0 -18 21 -8 126 61
235 155 405 210 649 210 463 0 787 -356 866 -950 19 -137 16 -480 -4 -613 -26
-172 -65 -332 -114 -467 -59 -165 -189 -486 -214 -528 -10 -18 -19 -37 -19
-43 0 -29 135 13 293 92 163 81 268 160 424 316 122 123 147 143 173 143 47 0
80 -38 80 -92 0 -80 -49 -161 -168 -278 -222 -219 -502 -363 -819 -421 -65
-12 -128 -27 -139 -33 -12 -6 -50 -47 -84 -91 -145 -184 -356 -368 -548 -477
-352 -199 -642 -234 -970 -116 -229 83 -428 290 -576 598 -184 385 -256 801
-243 1410 8 342 38 630 113 1060 122 708 253 1168 484 1705 139 324 298 565
497 755 164 157 283 214 433 207 56 -3 105 -12 143 -27z"/>
<path d="M3940 6578 c-45 -46 -142 -249 -190 -398 -62 -189 -144 -499 -199
-750 -63 -282 -183 -930 -175 -939 17 -19 70 60 228 334 218 380 399 868 467
1255 27 152 35 347 19 424 -22 106 -87 137 -150 74z"/>
<path d="M4045 4370 c-159 -44 -305 -132 -426 -257 -218 -225 -332 -520 -333
-863 -1 -213 33 -368 116 -535 136 -272 356 -460 650 -556 124 -40 186 -47
216 -23 35 30 155 312 216 509 128 414 180 734 180 1095 0 218 -13 299 -63
407 -40 85 -118 165 -200 206 -60 29 -74 32 -176 34 -84 2 -127 -2 -180 -17z"/>
<path d="M3197 2413 c-20 -19 8 -245 48 -403 34 -132 110 -282 176 -350 94
-95 205 -128 325 -95 90 24 173 81 282 192 82 84 93 99 90 127 -3 31 -4 31
-120 62 -158 41 -239 75 -361 147 -121 74 -200 133 -324 244 -90 81 -103 90
-116 76z"/>
</g>
</svg>
