<?xml version="1.0" standalone="no"?>
<!DOCTYPE svg PUBLIC "-//W3C//DTD SVG 20010904//EN"
 "http://www.w3.org/TR/2001/REC-SVG-20010904/DTD/svg10.dtd">
<svg version="1.0" xmlns="http://www.w3.org/2000/svg"
 width="500.000000pt" height="500.000000pt" viewBox="0 0 500.000000 500.000000"
 preserveAspectRatio="xMidYMid meet">
<metadata>
Created by potrace 1.11, written by Peter Selinger 2001-2013
</metadata>
<g transform="translate(0.000000,500.000000) scale(0.100000,-0.100000)"
fill="#000000" stroke="none">
<path d="M2462 4250 c-71 -15 -138 -59 -225 -149 -102 -106 -162 -198 -243
-366 -122 -255 -206 -517 -274 -853 -155 -768 -141 -1292 46 -1664 72 -144
146 -231 249 -293 89 -53 183 -79 290 -79 115 -1 177 15 300 74 218 105 382
266 521 511 45 80 60 99 79 99 30 0 150 37 200 62 57 29 151 94 213 147 l52
45 0 84 0 84 -65 -60 c-73 -69 -176 -133 -258 -162 -97 -34 -98 -33 -66 63 83
248 98 553 38 767 -79 284 -311 455 -561 412 -102 -18 -173 -55 -249 -131
-233 -234 -282 -592 -124 -918 67 -138 183 -250 313 -302 19 -8 32 -20 32 -32
0 -30 -67 -168 -124 -253 -135 -203 -286 -279 -399 -200 -125 88 -179 287
-178 659 0 272 11 364 62 511 52 152 102 247 278 524 150 239 266 458 320 605
71 194 106 433 82 559 -35 186 -156 286 -309 256z m86 -220 c10 -18 12 -56 8
-145 -8 -212 -83 -461 -226 -750 -68 -136 -189 -344 -190 -324 0 20 86 468
116 599 77 338 140 529 206 623 25 35 66 34 86 -3z m257 -1330 c32 -30 61
-102 76 -185 24 -142 -6 -489 -58 -659 l-18 -59 -63 58 c-105 97 -177 268
-189 450 -12 196 45 379 131 416 33 14 96 3 121 -21z"/>
</g>
</svg>
