<?xml version="1.0" standalone="no"?>
<!DOCTYPE svg PUBLIC "-//W3C//DTD SVG 20010904//EN"
 "http://www.w3.org/TR/2001/REC-SVG-20010904/DTD/svg10.dtd">
<svg version="1.0" xmlns="http://www.w3.org/2000/svg"
 width="1000.000000pt" height="1000.000000pt" viewBox="0 0 1000.000000 1000.000000"
 preserveAspectRatio="xMidYMid meet">
<metadata>
Created by potrace 1.11, written by Peter Selinger 2001-2013
</metadata>
<g transform="translate(0.000000,1000.000000) scale(0.100000,-0.100000)"
fill="#000000" stroke="none">
<path d="M4875 8476 c-99 -32 -162 -66 -246 -134 -337 -271 -608 -718 -864
-1422 -192 -530 -347 -1194 -455 -1949 -93 -653 -100 -1274 -19 -1756 99 -593
370 -1112 695 -1332 179 -121 398 -186 629 -187 210 0 390 45 610 154 442 217
786 573 1074 1111 l51 95 77 12 c98 16 287 79 389 130 148 75 284 171 447 315
l77 69 0 155 0 155 -88 -83 c-228 -218 -508 -373 -725 -403 -34 -4 -38 -3 -32
12 87 204 163 519 196 802 14 126 14 448 -1 580 -57 523 -275 889 -631 1060
-140 66 -220 83 -394 83 -179 0 -259 -18 -402 -88 -165 -81 -291 -200 -420
-397 -267 -407 -320 -873 -157 -1388 121 -383 330 -636 656 -795 121 -58 138
-70 138 -95 0 -9 -30 -82 -66 -160 -159 -344 -348 -598 -539 -725 -108 -72
-189 -98 -281 -93 -250 16 -430 269 -504 707 -58 344 -63 824 -14 1316 14 137
20 166 78 340 72 213 155 410 223 530 25 44 119 195 208 335 343 539 460 737
596 1010 365 733 468 1428 267 1811 -106 203 -349 298 -573 225z m204 -374
c42 -41 55 -131 48 -311 -20 -496 -255 -1197 -607 -1810 -102 -178 -243 -396
-248 -383 -9 27 147 855 234 1237 116 514 228 885 324 1081 75 151 129 214
184 214 28 0 45 -7 65 -28z m496 -2667 c74 -43 137 -149 174 -290 61 -231 50
-715 -25 -1125 -28 -151 -90 -400 -104 -414 -6 -6 -31 5 -64 28 -282 194 -489
708 -462 1148 10 175 54 389 99 486 38 82 130 168 207 193 44 15 128 2 175
-26z"/>
</g>
</svg>
