<?xml version="1.0" standalone="no"?>
<!DOCTYPE svg PUBLIC "-//W3C//DTD SVG 20010904//EN"
 "http://www.w3.org/TR/2001/REC-SVG-20010904/DTD/svg10.dtd">
<svg version="1.0" xmlns="http://www.w3.org/2000/svg"
 width="800.000000pt" height="800.000000pt" viewBox="0 0 800.000000 800.000000"
 preserveAspectRatio="xMidYMid meet">
<metadata>
Created by potrace 1.11, written by Peter Selinger 2001-2013
</metadata>
<g transform="translate(0.000000,800.000000) scale(0.100000,-0.100000)"
fill="#000000" stroke="none">
<path d="M3685 7974 c-16 -2 -79 -9 -140 -15 -694 -70 -1427 -366 -1990 -804
-791 -615 -1323 -1497 -1490 -2467 -44 -261 -50 -337 -50 -693 0 -356 6 -431
51 -695 152 -884 614 -1706 1297 -2307 541 -476 1203 -798 1907 -927 259 -48
412 -60 730 -60 318 0 471 12 730 60 1229 226 2283 1022 2848 2150 170 339
292 711 356 1084 45 264 51 339 51 695 0 356 -6 432 -50 693 -104 603 -359
1195 -728 1688 -589 786 -1433 1326 -2382 1524 -284 59 -417 72 -780 75 -181
2 -343 1 -360 -1z m396 -1030 c393 -115 473 -644 214 -1429 -221 -672 -583
-1358 -1022 -1937 -109 -144 -127 -176 -138 -248 -11 -74 55 -463 121 -719
112 -433 304 -741 514 -823 75 -29 193 -30 273 -1 159 59 346 238 486 466 64
106 161 304 161 331 0 31 1 30 -131 76 -157 54 -254 115 -374 235 -118 118
-182 218 -231 362 -41 122 -57 238 -44 336 47 367 338 609 735 609 196 1 342
-52 465 -169 121 -113 192 -248 231 -438 23 -112 25 -352 4 -470 -29 -160 -21
-176 83 -155 126 24 344 102 487 174 165 84 279 158 415 272 55 46 106 84 112
84 8 0 9 -30 5 -107 -4 -58 -7 -140 -7 -182 l-1 -76 -140 -99 c-250 -176 -419
-268 -628 -340 -119 -42 -272 -82 -349 -92 -73 -9 -94 -30 -127 -121 -149
-423 -493 -904 -783 -1097 -511 -340 -1191 -267 -1632 174 -162 161 -254 319
-349 594 -124 359 -164 602 -181 1083 -29 841 66 1607 282 2273 157 485 356
824 645 1102 116 111 189 164 310 226 163 83 299 120 444 121 60 1 116 -5 150
-15z"/>
<path d="M3753 6325 c-82 -35 -194 -179 -275 -353 -71 -150 -178 -508 -237
-787 -75 -354 -130 -798 -138 -1106 -3 -125 -3 -234 0 -243 12 -32 47 3 132
132 299 459 587 1068 709 1499 74 265 114 578 87 691 -18 72 -62 137 -110 162
-47 23 -121 26 -168 5z"/>
<path d="M4517 3986 c-172 -62 -264 -273 -213 -490 48 -204 242 -412 459 -491
45 -17 48 -17 67 0 56 51 91 470 55 670 -18 103 -72 212 -127 260 -69 58 -164
78 -241 51z"/>
</g>
</svg>
