<svg version="1" xmlns="http://www.w3.org/2000/svg" width="666.667" height="666.667" viewBox="0 0 500.000000 500.000000"><path d="M246.2 75c-7.1 1.5-13.8 5.9-22.5 14.9-10.2 10.6-16.2 19.8-24.3 36.6-12.2 25.5-20.6 51.7-27.4 85.3-15.5 76.8-14.1 129.2 4.6 166.4 7.2 14.4 14.6 23.1 24.9 29.3 8.9 5.3 18.3 7.9 29 7.9 11.5.1 17.7-1.5 30-7.4 21.8-10.5 38.2-26.6 52.1-51.1 4.5-8 6-9.9 7.9-9.9 3 0 15-3.7 20-6.2 5.7-2.9 15.1-9.4 21.3-14.7l5.2-4.5v-16.8l-6.5 6c-7.3 6.9-17.6 13.3-25.8 16.2-9.7 3.4-9.8 3.3-6.6-6.3 8.3-24.8 9.8-55.3 3.8-76.7-7.9-28.4-31.1-45.5-56.1-41.2-10.2 1.8-17.3 5.5-24.9 13.1-23.3 23.4-28.2 59.2-12.4 91.8 6.7 13.8 18.3 25 31.3 30.2 1.9.8 3.2 2 3.2 3.2 0 3-6.7 16.8-12.4 25.3-13.5 20.3-28.6 27.9-39.9 20-12.5-8.8-17.9-28.7-17.8-65.9 0-27.2 1.1-36.4 6.2-51.1 5.2-15.2 10.2-24.7 27.8-52.4 15-23.9 26.6-45.8 32-60.5 7.1-19.4 10.6-43.3 8.2-55.9C273.6 82 261.5 72 246.2 75zm8.6 22c1 1.8 1.2 5.6.8 14.5-.8 21.2-8.3 46.1-22.6 75-6.8 13.6-18.9 34.4-19 32.4 0-2 8.6-46.8 11.6-59.9 7.7-33.8 14-52.9 20.6-62.3 2.5-3.5 6.6-3.4 8.6.3zm25.7 133c3.2 3 6.1 10.2 7.6 18.5 2.4 14.2-.6 48.9-5.8 65.9l-1.8 5.9-6.3-5.8c-10.5-9.7-17.7-26.8-18.9-45-1.2-19.6 4.5-37.9 13.1-41.6 3.3-1.4 9.6-.3 12.1 2.1z"/></svg>