<svg version="1" xmlns="http://www.w3.org/2000/svg" width="1066.667" height="1066.667" viewBox="0 0 800.000000 800.000000"><path d="M370 1c-99.7 8.3-188.1 49.7-257 120.6-93.3 96-131.9 230.8-103.9 362.8C24.6 558 62.6 627.5 117 682c77.6 77.8 183 119.7 293 116.7 61.6-1.7 115.2-15.2 169.5-42.6 66.7-33.7 119.4-82 160-146.6 9.2-14.6 24.9-45.8 31.4-62.2 13.4-34.2 22.3-70.6 26.3-108.3 1.9-17.6 1.6-65.3-.6-83.5-9.1-78.2-38.4-147.8-88-209-11.6-14.3-43.1-45.8-56.9-56.7-62.8-49.9-129.4-77.9-208.2-87.4C428.2.6 385.1-.2 370 1zm46.3 110c7.6 2.9 17.3 11.9 21 19.3 14.5 29.6 9.2 78.7-14.3 134.2-4.5 10.7-20.3 41.9-35.7 70.3-5.1 9.5-9.3 17.7-9.3 18.3 0 1.8 2.1.8 12.6-6.1 23.5-15.5 40.5-21 64.9-21 46.3 0 78.7 35.6 86.6 95 1.9 13.7 1.6 48-.4 61.3-2.6 17.2-6.5 33.2-11.4 46.7-5.9 16.5-18.9 48.6-21.4 52.8-1 1.8-1.9 3.7-1.9 4.3 0 2.9 13.5-1.3 29.3-9.2 16.3-8.1 26.8-16 42.4-31.6C590.9 533 593.4 531 596 531c4.7 0 8 3.8 8 9.2 0 8-4.9 16.1-16.8 27.8-22.2 21.9-50.2 36.3-81.9 42.1-6.5 1.2-12.8 2.7-13.9 3.3-1.2.6-5 4.7-8.4 9.1-14.5 18.4-35.6 36.8-54.8 47.7-35.2 19.9-64.2 23.4-97 11.6-22.9-8.3-42.8-29-57.6-59.8-18.4-38.5-25.6-80.1-24.3-141 .8-34.2 3.8-63 11.3-106 12.2-70.8 25.3-116.8 48.4-170.5 13.9-32.4 29.8-56.5 49.7-75.5 16.4-15.7 28.3-21.4 43.3-20.7 5.6.3 10.5 1.2 14.3 2.7z"/><path d="M394 142.2c-4.5 4.6-14.2 24.9-19 39.8-6.2 18.9-14.4 49.9-19.9 75-6.3 28.2-18.3 93-17.5 93.9 1.7 1.9 7-6 22.8-33.4 21.8-38 39.9-86.8 46.7-125.5 2.7-15.2 3.5-34.7 1.9-42.4-2.2-10.6-8.7-13.7-15-7.4zM404.5 363c-15.9 4.4-30.5 13.2-42.6 25.7-21.8 22.5-33.2 52-33.3 86.3-.1 21.3 3.3 36.8 11.6 53.5 13.6 27.2 35.6 46 65 55.6 12.4 4 18.6 4.7 21.6 2.3 3.5-3 15.5-31.2 21.6-50.9 12.8-41.4 18-73.4 18-109.5 0-21.8-1.3-29.9-6.3-40.7-4-8.5-11.8-16.5-20-20.6-6-2.9-7.4-3.2-17.6-3.4-8.4-.2-12.7.2-18 1.7zm-84.8 195.7c-2 1.9.8 24.5 4.8 40.3 3.4 13.2 11 28.2 17.6 35 9.4 9.5 20.5 12.8 32.5 9.5 9-2.4 17.3-8.1 28.2-19.2 8.2-8.4 9.3-9.9 9-12.7-.3-3.1-.4-3.1-12-6.2-15.8-4.1-23.9-7.5-36.1-14.7-12.1-7.4-20-13.3-32.4-24.4-9-8.1-10.3-9-11.6-7.6z"/></svg>