<svg version="1" xmlns="http://www.w3.org/2000/svg" width="1333.333" height="1333.333" viewBox="0 0 1000.000000 1000.000000"><path d="M487.5 152.4c-9.9 3.2-16.2 6.6-24.6 13.4-33.7 27.1-60.8 71.8-86.4 142.2-19.2 53-34.7 119.4-45.5 194.9-9.3 65.3-10 127.4-1.9 175.6 9.9 59.3 37 111.2 69.5 133.2 17.9 12.1 39.8 18.6 62.9 18.7 21 0 39-4.5 61-15.4 44.2-21.7 78.6-57.3 107.4-111.1l5.1-9.5 7.7-1.2c9.8-1.6 28.7-7.9 38.9-13 14.8-7.5 28.4-17.1 44.7-31.5l7.7-6.9v-31l-8.8 8.3c-22.8 21.8-50.8 37.3-72.5 40.3-3.4.4-3.8.3-3.2-1.2 8.7-20.4 16.3-51.9 19.6-80.2 1.4-12.6 1.4-44.8-.1-58-5.7-52.3-27.5-88.9-63.1-106-14-6.6-22-8.3-39.4-8.3-17.9 0-25.9 1.8-40.2 8.8-16.5 8.1-29.1 20-42 39.7-26.7 40.7-32 87.3-15.7 138.8 12.1 38.3 33 63.6 65.6 79.5 12.1 5.8 13.8 7 13.8 9.5 0 .9-3 8.2-6.6 16-15.9 34.4-34.8 59.8-53.9 72.5-10.8 7.2-18.9 9.8-28.1 9.3-25-1.6-43-26.9-50.4-70.7-5.8-34.4-6.3-82.4-1.4-131.6 1.4-13.7 2-16.6 7.8-34 7.2-21.3 15.5-41 22.3-53 2.5-4.4 11.9-19.5 20.8-33.5 34.3-53.9 46-73.7 59.6-101 36.5-73.3 46.8-142.8 26.7-181.1-10.6-20.3-34.9-29.8-57.3-22.5zm20.4 37.4c4.2 4.1 5.5 13.1 4.8 31.1-2 49.6-25.5 119.7-60.7 181-10.2 17.8-24.3 39.6-24.8 38.3-.9-2.7 14.7-85.5 23.4-123.7 11.6-51.4 22.8-88.5 32.4-108.1 7.5-15.1 12.9-21.4 18.4-21.4 2.8 0 4.5.7 6.5 2.8zm49.6 266.7c7.4 4.3 13.7 14.9 17.4 29 6.1 23.1 5 71.5-2.5 112.5-2.8 15.1-9 40-10.4 41.4-.6.6-3.1-.5-6.4-2.8-28.2-19.4-48.9-70.8-46.2-114.8 1-17.5 5.4-38.9 9.9-48.6 3.8-8.2 13-16.8 20.7-19.3 4.4-1.5 12.8-.2 17.5 2.6z"/></svg>