<svg version="1" xmlns="http://www.w3.org/2000/svg" width="1066.667" height="1066.667" viewBox="0 0 800.000000 800.000000"><path d="M368.5 2.6c-1.6.2-7.9.9-14 1.5-69.4 7-142.7 36.6-199 80.4C76.4 146 23.2 234.2 6.5 331.2c-4.4 26.1-5 33.7-5 69.3 0 35.6.6 43.1 5.1 69.5C21.8 558.4 68 640.6 136.3 700.7c54.1 47.6 120.3 79.8 190.7 92.7 25.9 4.8 41.2 6 73 6 31.8 0 47.1-1.2 73-6 122.9-22.6 228.3-102.2 284.8-215 17-33.9 29.2-71.1 35.6-108.4 4.5-26.4 5.1-33.9 5.1-69.5s-.6-43.2-5-69.3c-10.4-60.3-35.9-119.5-72.8-168.8C661.8 83.8 577.4 29.8 482.5 10c-28.4-5.9-41.7-7.2-78-7.5-18.1-.2-34.3-.1-36 .1zm39.6 103c39.3 11.5 47.3 64.4 21.4 142.9-22.1 67.2-58.3 135.8-102.2 193.7-10.9 14.4-12.7 17.6-13.8 24.8-1.1 7.4 5.5 46.3 12.1 71.9 11.2 43.3 30.4 74.1 51.4 82.3 7.5 2.9 19.3 3 27.3.1 15.9-5.9 34.6-23.8 48.6-46.6 6.4-10.6 16.1-30.4 16.1-33.1 0-3.1.1-3-13.1-7.6-15.7-5.4-25.4-11.5-37.4-23.5-11.8-11.8-18.2-21.8-23.1-36.2-4.1-12.2-5.7-23.8-4.4-33.6 4.7-36.7 33.8-60.9 73.5-60.9 19.6-.1 34.2 5.2 46.5 16.9 12.1 11.3 19.2 24.8 23.1 43.8 2.3 11.2 2.5 35.2.4 47-2.9 16-2.1 17.6 8.3 15.5 12.6-2.4 34.4-10.2 48.7-17.4 16.5-8.4 27.9-15.8 41.5-27.2 5.5-4.6 10.6-8.4 11.2-8.4.8 0 .9 3 .5 10.7-.4 5.8-.7 14-.7 18.2l-.1 7.6-14 9.9c-25 17.6-41.9 26.8-62.8 34-11.9 4.2-27.2 8.2-34.9 9.2-7.3.9-9.4 3-12.7 12.1-14.9 42.3-49.3 90.4-78.3 109.7-51.1 34-119.1 26.7-163.2-17.4-16.2-16.1-25.4-31.9-34.9-59.4-12.4-35.9-16.4-60.2-18.1-108.3-2.9-84.1 6.6-160.7 28.2-227.3 15.7-48.5 35.6-82.4 64.5-110.2 11.6-11.1 18.9-16.4 31-22.6 16.3-8.3 29.9-12 44.4-12.1 6-.1 11.6.5 15 1.5z"/><path d="M375.3 167.5c-8.2 3.5-19.4 17.9-27.5 35.3-7.1 15-17.8 50.8-23.7 78.7-7.5 35.4-13 79.8-13.8 110.6-.3 12.5-.3 23.4 0 24.3 1.2 3.2 4.7-.3 13.2-13.2 29.9-45.9 58.7-106.8 70.9-149.9 7.4-26.5 11.4-57.8 8.7-69.1-1.8-7.2-6.2-13.7-11-16.2-4.7-2.3-12.1-2.6-16.8-.5zm76.4 233.9c-17.2 6.2-26.4 27.3-21.3 49 4.8 20.4 24.2 41.2 45.9 49.1 4.5 1.7 4.8 1.7 6.7 0 5.6-5.1 9.1-47 5.5-67-1.8-10.3-7.2-21.2-12.7-26-6.9-5.8-16.4-7.8-24.1-5.1z"/></svg>