<svg id="Layer_1" data-name="Layer 1" xmlns="http://www.w3.org/2000/svg" viewBox="0 0 40 40"><defs><style>.cls-1{fill:#fff;}</style></defs><title>Socialicons</title><path class="cls-1" d="M21.2,18.53v0l0,0Z"/><path class="cls-1" d="M20,0A20,20,0,1,0,40,20,20,20,0,0,0,20,0ZM14.54,29.56H10.25V16.66h4.29ZM12.4,14.9h0a2.23,2.23,0,1,1,.06-4.46,2.24,2.24,0,1,1,0,4.46ZM30,29.56H25.71v-6.9c0-1.73-.62-2.92-2.17-2.92a2.35,2.35,0,0,0-2.2,1.57,2.91,2.91,0,0,0-.14,1v7.2H16.91s.05-11.69,0-12.9H21.2v1.83a4.25,4.25,0,0,1,3.86-2.13c2.82,0,4.94,1.84,4.94,5.8Z"/></svg>