<svg id="Layer_1" data-name="Layer 1" xmlns="http://www.w3.org/2000/svg" viewBox="0 0 40 40"><defs><style>.cls-1{fill:#fff;}</style></defs><title>Socialicons</title><path class="cls-1" d="M20,0A20,20,0,1,0,40,20,20,20,0,0,0,20,0Zm8,15.92c0,.18,0,.35,0,.53a11.67,11.67,0,0,1-18,9.83,8.66,8.66,0,0,0,1,.06,8.22,8.22,0,0,0,5.1-1.76,4.11,4.11,0,0,1-3.83-2.85,4.22,4.22,0,0,0,.77.07,4.14,4.14,0,0,0,1.08-.14,4.11,4.11,0,0,1-3.29-4v-.05a4.1,4.1,0,0,0,1.86.51,4.11,4.11,0,0,1-1.27-5.48,11.65,11.65,0,0,0,8.46,4.29,4.11,4.11,0,0,1,7-3.74,8.19,8.19,0,0,0,2.61-1,4.12,4.12,0,0,1-1.8,2.27A8.19,8.19,0,0,0,30,13.8,8.32,8.32,0,0,1,28,15.92Z"/></svg>