<svg xmlns="http://www.w3.org/2000/svg"><defs><style>.cls-1{fill:#fff}</style><style>.cls-1{fill:#fff}</style><style>.cls-1{fill:#fff}</style><style>.fe4a2a6e-a4a5-4245-8507-e0920ceb8a2f{fill:#fff}</style></defs><symbol id="icon-arrow" viewBox="0 0 55 55"><path d="M27.5 55A27.5 27.5 0 1 1 55 27.5 27.53 27.53 0 0 1 27.5 55zm0-52A24.5 24.5 0 1 0 52 27.5 24.53 24.53 0 0 0 27.5 3z"/><path d="M31.79 43.25L15.33 27.6l16.45-15.85 2.08 2.16-14.19 13.68 14.18 13.49-2.06 2.17"/></symbol><symbol id="icon-facebook" viewBox="0 0 40 40"><title>Socialicons</title><path class="cls-1" d="M20 0a20 20 0 1 0 20 20A20 20 0 0 0 20 0zm4.28 20h-2.8v10h-4.15V20h-2v-3.52h2v-2.29A3.89 3.89 0 0 1 21.52 10h3.08v3.43h-2.24a.85.85 0 0 0-.88 1v2.08h3.17z"/></symbol><symbol id="icon-googleplus"><path d="M1.99 5.59c0 1.492.5 2.57 1.482 3.204.805.52 1.74.597 2.226.597h.278s-.154 1.01.59 2h-.034c-1.29 0-5.494.27-5.494 3.73 0 3.52 3.862 3.7 4.636 3.7h.254c.497 0 1.782-.06 2.976-.64 1.548-.75 2.334-2.06 2.334-3.88 0-1.76-1.196-2.81-2.07-3.58-.533-.47-.994-.87-.994-1.27s.336-.7.762-1.08c.688-.61 1.338-1.49 1.338-3.15 0-1.46-.19-2.43-1.354-3.05.122-.06.55-.11.764-.14.63-.08 1.554-.18 1.554-.7v-.1H6.64c-.046 0-4.65.17-4.65 4.39zm7.423 9.01c.088 1.406-1.115 2.444-2.92 2.575-1.835.135-3.346-.69-3.434-2.097-.05-.675.25-1.336.83-1.863.59-.533 1.4-.862 2.28-.928.1-.007.2-.012.31-.012 1.69 0 2.84.998 2.93 2.324zm-1.2-9.976c.45 1.587-.23 3.246-1.316 3.552a1.423 1.423 0 0 1-.384.053c-.995 0-1.98-1.01-2.345-2.39-.204-.78-.188-1.46.046-2.12.23-.65.643-1.08 1.163-1.23.125-.04.255-.06.385-.06 1.2 0 1.972.5 2.45 2.18zM15.96 8.08v-3h-1.9v3h-3v1.9h3v3h1.9v-3h3v-1.9h-3z"/></symbol><symbol id="icon-linkedin" viewBox="0 0 40 40"><title>Socialicons</title><path class="cls-1" d="M21.2 18.53zM20 0a20 20 0 1 0 20 20A20 20 0 0 0 20 0zm-5.46 29.56h-4.29v-12.9h4.29zM12.4 14.9a2.23 2.23 0 1 1 .06-4.46 2.24 2.24 0 1 1 0 4.46zM30 29.56h-4.29v-6.9c0-1.73-.62-2.92-2.17-2.92a2.35 2.35 0 0 0-2.2 1.57 2.91 2.91 0 0 0-.14 1v7.2h-4.29s.05-11.69 0-12.9h4.29v1.83a4.25 4.25 0 0 1 3.86-2.13c2.82 0 4.94 1.84 4.94 5.8z"/></symbol><symbol id="icon-twitter" viewBox="0 0 40 40"><title>Socialicons</title><path class="cls-1" d="M20 0a20 20 0 1 0 20 20A20 20 0 0 0 20 0zm8 15.92v.53a11.67 11.67 0 0 1-18 9.83 8.66 8.66 0 0 0 1 .06 8.22 8.22 0 0 0 5.1-1.76 4.11 4.11 0 0 1-3.83-2.85 4.22 4.22 0 0 0 .77.07 4.14 4.14 0 0 0 1.08-.14 4.11 4.11 0 0 1-3.29-4v-.05a4.1 4.1 0 0 0 1.86.51 4.11 4.11 0 0 1-1.27-5.48 11.65 11.65 0 0 0 8.46 4.29 4.11 4.11 0 0 1 7-3.74 8.19 8.19 0 0 0 2.61-1 4.12 4.12 0 0 1-1.8 2.27A8.19 8.19 0 0 0 30 13.8a8.32 8.32 0 0 1-2 2.12z"/></symbol><symbol id="icon-video-pause-button" viewBox="0 0 510 510"><path d="M178.5 357h51V153h-51v204zM255 0C114.75 0 0 114.75 0 255s114.75 255 255 255 255-114.75 255-255S395.25 0 255 0zm0 459c-112.2 0-204-91.8-204-204S142.8 51 255 51s204 91.8 204 204-91.8 204-204 204zm25.5-102h51V153h-51v204z" fill="#FFF" id="pause-circle-outline"/></symbol><symbol id="icon-video-play-button" viewBox="0 0 41.71 41.71"><title>Artboard 101</title><g id="64921f28-b037-4811-942b-6d82a9493e66" data-name="Layer 1"><path class="fe4a2a6e-a4a5-4245-8507-e0920ceb8a2f" d="M16.65 31.66a1 1 0 0 1-1-1l-.23-19.62a1 1 0 0 1 1.58-.81l13.63 10a1 1 0 0 1 0 1.62l-13.4 9.65a1 1 0 0 1-.58.16zm.8-18.66l.18 15.7L28.35 21z"/><path class="fe4a2a6e-a4a5-4245-8507-e0920ceb8a2f" d="M20.85 41.71a20.85 20.85 0 1 1 20.86-20.86 20.88 20.88 0 0 1-20.86 20.86zm0-39A18.16 18.16 0 1 0 39 20.85 18.18 18.18 0 0 0 20.85 2.69z"/></g></symbol><symbol id="icon-youtube" viewBox="0 0 20.791 24.061"><path d="M10.584 2.219a1.864 1.864 0 0 0-.558 0c-.411.077-1.137.34-1.405 1.22 0 0-.059.441-.059.629v3.123s.013.537.31 1.004c.224.355.616.664 1.237.732.086.011.363.011.462-.002.585-.086.96-.39 1.181-.73.294-.467.303-1.004.303-1.004V4.068c0-.188-.057-.629-.057-.629-.271-.889-1.017-1.15-1.414-1.22zm.289 1.848V7.19c0 .749-.563.69-.563.69s-.625.059-.625-.69V4.067c0-.879.625-.812.625-.812.626.001.563.812.563.812zm4.436-1.814v5.065c-.18.437-.683.562-.683.562-.44 0-.38-.312-.38-.312V2.253h-1.189V7.94c0 .629.319 1.001.943 1.001.626 0 1.309-.811 1.309-.811v.748h1.188V2.253h-1.188zM6.25 3.438L5.309 0H3.932l1.691 5.251v3.568h1.246V5.251L8.496 0h-1.31L6.25 3.438zM17.828 16.436s-.059-.693-.566-.693c-.502 0-.633.568-.633.693v.818h1.199v-.818zm.822-5.863c-1.447-.25-3.095-.188-8.316-.25-3.53 0-5.305.062-5.545.062-2.273.126-3.848-.189-4.418 2.274C.127 14.042 0 15.807 0 17.155c.127 2.936-.133 6.461 2.707 6.719 1.453.129 5.229.188 7.719.188 3.404 0 7.089-.064 8.356-.316.551-.135 1.031-.705 1.192-.943.734-.99.75-2.479.816-5.672-.128-2.711.067-6.242-2.14-6.558zM6.109 13.725H4.664v7.629h-1.33v-7.629H1.947v-1.324h4.162s.063 1.324 0 1.324zm3.717 7.692H8.625v-.764s-.629.824-1.32.824c-.695 0-.943-.439-.943-1.258v-5.482h1.19v5.354s0 .254.325.254c.305 0 .748-.445.748-.57v-5.037h1.201v6.679zm4.604-1.198s-.135 1.258-.889 1.258-1.195-.439-1.443-.756v.695h-1.195v-8.952h1.195v2.899s.636-.756 1.195-.756c.566 0 1.137.377 1.137 1.199v4.413zm4.535 0c-.183 1.135-1.578 1.258-1.578 1.258-2.019 0-1.954-1.893-1.954-1.893v-3.148c0-.253.123-.629.123-.629.137-.381.267-1.133 1.77-1.133 1.764 0 1.704 1.762 1.704 1.762v1.83h-2.4v1.318c0 .377.191.76.696.76.503 0 .503-.76.503-.76v-.498h1.201c-.001 0 .059.309-.065 1.133zm-6.232-4.476c-.326 0-.576.254-.576.254v4.094c.188.254.576.254.576.254.497 0 .497-.57.497-.57v-3.338c0-.44-.189-.694-.497-.694z"/></symbol></svg>